<svg xmlns="http://www.w3.org/2000/svg" role="img" viewBox="0 0 1100 1932">
  <style>
    .terminal-text {
      font-family: Consolas, Menlo, Monaco, 'Courier New', monospace;
      font-size: 24px;
      font-weight: bold;
    }
  </style>
  <rect width="1100" height="1932" fill="#000000"/>
  <g class="terminal-text" xml:space="preserve">
    <text x="56" y="60" fill="#ffffff">pradeep@github:~$ ./about_me.sh</text>
    <g transform="translate(56, 136)">
      <rect x="62.2" y="86.5" width="7.8" height="3.9" fill="#ffffff" />
<rect x="77.8" y="86.5" width="3.9" height="3.9" fill="#ffffff" />
<rect x="89.4" y="86.5" width="11.7" height="3.9" fill="#ffffff" />
<rect x="105.0" y="86.5" width="15.6" height="3.9" fill="#ffffff" />
<rect x="128.3" y="86.5" width="3.9" height="3.9" fill="#ffffff" />
<rect x="136.1" y="86.5" width="7.8" height="3.9" fill="#ffffff" />
<rect x="155.6" y="86.5" width="15.6" height="3.9" fill="#ffffff" />
<rect x="175.0" y="86.5" width="15.6" height="3.9" fill="#ffffff" />
<rect x="198.3" y="86.5" width="11.7" height="3.9" fill="#ffffff" />
<rect x="217.8" y="86.5" width="15.6" height="3.9" fill="#ffffff" />
<rect x="237.2" y="86.5" width="15.6" height="3.9" fill="#ffffff" />
<rect x="256.7" y="86.5" width="31.1" height="3.9" fill="#ffffff" />
<rect x="62.2" y="90.5" width="11.7" height="3.9" fill="#ffffff" />
<rect x="77.8" y="90.5" width="3.9" height="3.9" fill="#ffffff" />
<rect x="85.6" y="90.5" width="38.9" height="3.9" fill="#ffffff" />
<rect x="128.3" y="90.5" width="3.9" height="3.9" fill="#ffffff" />
<rect x="136.1" y="90.5" width="7.8" height="3.9" fill="#ffffff" />
<rect x="155.6" y="90.5" width="15.6" height="3.9" fill="#ffffff" />
<rect x="175.0" y="90.5" width="19.4" height="3.9" fill="#ffffff" />
<rect x="198.3" y="90.5" width="15.6" height="3.9" fill="#ffffff" />
<rect x="217.8" y="90.5" width="35.0" height="3.9" fill="#ffffff" />
<rect x="256.7" y="90.5" width="35.0" height="3.9" fill="#ffffff" />
<rect x="62.2" y="94.4" width="11.7" height="3.9" fill="#ffffff" />
<rect x="77.8" y="94.4" width="3.9" height="3.9" fill="#ffffff" />
<rect x="85.6" y="94.4" width="7.8" height="3.9" fill="#ffffff" />
<rect x="97.2" y="94.4" width="15.6" height="3.9" fill="#ffffff" />
<rect x="116.7" y="94.4" width="7.8" height="3.9" fill="#ffffff" />
<rect x="128.3" y="94.4" width="3.9" height="3.9" fill="#ffffff" />
<rect x="136.1" y="94.4" width="7.8" height="3.9" fill="#ffffff" />
<rect x="155.6" y="94.4" width="7.8" height="3.9" fill="#ffffff" />
<rect x="167.2" y="94.4" width="3.9" height="3.9" fill="#ffffff" />
<rect x="175.0" y="94.4" width="7.8" height="3.9" fill="#ffffff" />
<rect x="186.7" y="94.4" width="15.6" height="3.9" fill="#ffffff" />
<rect x="206.1" y="94.4" width="7.8" height="3.9" fill="#ffffff" />
<rect x="217.8" y="94.4" width="7.8" height="3.9" fill="#ffffff" />
<rect x="229.4" y="94.4" width="15.6" height="3.9" fill="#ffffff" />
<rect x="256.7" y="94.4" width="7.8" height="3.9" fill="#ffffff" />
<rect x="272.2" y="94.4" width="7.8" height="3.9" fill="#ffffff" />
<rect x="283.9" y="94.4" width="7.8" height="3.9" fill="#ffffff" />
<rect x="62.2" y="98.3" width="11.7" height="3.9" fill="#ffffff" />
<rect x="77.8" y="98.3" width="3.9" height="3.9" fill="#ffffff" />
<rect x="85.6" y="98.3" width="7.8" height="3.9" fill="#ffffff" />
<rect x="97.2" y="98.3" width="15.6" height="3.9" fill="#ffffff" />
<rect x="116.7" y="98.3" width="7.8" height="3.9" fill="#ffffff" />
<rect x="128.3" y="98.3" width="3.9" height="3.9" fill="#ffffff" />
<rect x="136.1" y="98.3" width="7.8" height="3.9" fill="#ffffff" />
<rect x="155.6" y="98.3" width="7.8" height="3.9" fill="#ffffff" />
<rect x="167.2" y="98.3" width="3.9" height="3.9" fill="#ffffff" />
<rect x="175.0" y="98.3" width="7.8" height="3.9" fill="#ffffff" />
<rect x="186.7" y="98.3" width="15.6" height="3.9" fill="#ffffff" />
<rect x="206.1" y="98.3" width="7.8" height="3.9" fill="#ffffff" />
<rect x="217.8" y="98.3" width="7.8" height="3.9" fill="#ffffff" />
<rect x="229.4" y="98.3" width="23.3" height="3.9" fill="#ffffff" />
<rect x="256.7" y="98.3" width="11.7" height="3.9" fill="#ffffff" />
<rect x="272.2" y="98.3" width="7.8" height="3.9" fill="#ffffff" />
<rect x="283.9" y="98.3" width="7.8" height="3.9" fill="#ffffff" />
<rect x="62.2" y="102.3" width="19.4" height="3.9" fill="#ffffff" />
<rect x="85.6" y="102.3" width="35.0" height="3.9" fill="#ffffff" />
<rect x="128.3" y="102.3" width="3.9" height="3.9" fill="#ffffff" />
<rect x="136.1" y="102.3" width="7.8" height="3.9" fill="#ffffff" />
<rect x="155.6" y="102.3" width="15.6" height="3.9" fill="#ffffff" />
<rect x="175.0" y="102.3" width="15.6" height="3.9" fill="#ffffff" />
<rect x="194.4" y="102.3" width="7.8" height="3.9" fill="#ffffff" />
<rect x="206.1" y="102.3" width="7.8" height="3.9" fill="#ffffff" />
<rect x="217.8" y="102.3" width="7.8" height="3.9" fill="#ffffff" />
<rect x="229.4" y="102.3" width="23.3" height="3.9" fill="#ffffff" />
<rect x="256.7" y="102.3" width="11.7" height="3.9" fill="#ffffff" />
<rect x="272.2" y="102.3" width="19.4" height="3.9" fill="#ffffff" />
<rect x="62.2" y="106.2" width="7.8" height="3.9" fill="#ffffff" />
<rect x="73.9" y="106.2" width="7.8" height="3.9" fill="#ffffff" />
<rect x="85.6" y="106.2" width="27.2" height="3.9" fill="#ffffff" />
<rect x="116.7" y="106.2" width="7.8" height="3.9" fill="#ffffff" />
<rect x="128.3" y="106.2" width="3.9" height="3.9" fill="#ffffff" />
<rect x="136.1" y="106.2" width="7.8" height="3.9" fill="#ffffff" />
<rect x="155.6" y="106.2" width="15.6" height="3.9" fill="#ffffff" />
<rect x="175.0" y="106.2" width="7.8" height="3.9" fill="#ffffff" />
<rect x="186.7" y="106.2" width="27.2" height="3.9" fill="#ffffff" />
<rect x="217.8" y="106.2" width="7.8" height="3.9" fill="#ffffff" />
<rect x="229.4" y="106.2" width="15.6" height="3.9" fill="#ffffff" />
<rect x="256.7" y="106.2" width="7.8" height="3.9" fill="#ffffff" />
<rect x="272.2" y="106.2" width="15.6" height="3.9" fill="#ffffff" />
<rect x="62.2" y="110.1" width="7.8" height="3.9" fill="#ffffff" />
<rect x="73.9" y="110.1" width="7.8" height="3.9" fill="#ffffff" />
<rect x="85.6" y="110.1" width="7.8" height="3.9" fill="#ffffff" />
<rect x="97.2" y="110.1" width="15.6" height="3.9" fill="#ffffff" />
<rect x="116.7" y="110.1" width="7.8" height="3.9" fill="#ffffff" />
<rect x="128.3" y="110.1" width="15.6" height="3.9" fill="#ffffff" />
<rect x="155.6" y="110.1" width="7.8" height="3.9" fill="#ffffff" />
<rect x="175.0" y="110.1" width="7.8" height="3.9" fill="#ffffff" />
<rect x="186.7" y="110.1" width="15.6" height="3.9" fill="#ffffff" />
<rect x="206.1" y="110.1" width="7.8" height="3.9" fill="#ffffff" />
<rect x="217.8" y="110.1" width="35.0" height="3.9" fill="#ffffff" />
<rect x="256.7" y="110.1" width="23.3" height="3.9" fill="#ffffff" />
<rect x="62.2" y="114.1" width="7.8" height="3.9" fill="#ffffff" />
<rect x="73.9" y="114.1" width="7.8" height="3.9" fill="#ffffff" />
<rect x="85.6" y="114.1" width="7.8" height="3.9" fill="#ffffff" />
<rect x="97.2" y="114.1" width="15.6" height="3.9" fill="#ffffff" />
<rect x="116.7" y="114.1" width="7.8" height="3.9" fill="#ffffff" />
<rect x="132.2" y="114.1" width="7.8" height="3.9" fill="#ffffff" />
<rect x="155.6" y="114.1" width="7.8" height="3.9" fill="#ffffff" />
<rect x="175.0" y="114.1" width="7.8" height="3.9" fill="#ffffff" />
<rect x="186.7" y="114.1" width="15.6" height="3.9" fill="#ffffff" />
<rect x="206.1" y="114.1" width="7.8" height="3.9" fill="#ffffff" />
<rect x="217.8" y="114.1" width="15.6" height="3.9" fill="#ffffff" />
<rect x="237.2" y="114.1" width="15.6" height="3.9" fill="#ffffff" />
<rect x="256.7" y="114.1" width="23.3" height="3.9" fill="#ffffff" />
<rect x="62.2" y="118.0" width="7.8" height="3.9" fill="#ffffff" />
    </g>
    <text x="56" y="412" fill="#ffffff">Backend Developer · CSE Student · Builder</text>
    <text x="56" y="470" fill="#9a9a9a">&gt; Location    : Visakhapatnam, Andhra Pradesh, India</text>
    <text x="56" y="508" fill="#9a9a9a">&gt; Education   : B.Tech CSE @ ANITS</text>
    <text x="56" y="546" fill="#9a9a9a">&gt; Focus       : Backend Engineering · API Security · Developer Tools</text>
    <text x="56" y="584" fill="#9a9a9a">&gt; Interests   : System Design · Open Source · Applied AI</text>
    <text x="56" y="660" fill="#9a9a9a">Backend-focused CSE student building security and developer tools.</text>
    <text x="56" y="698" fill="#9a9a9a">I enjoy designing APIs, understanding systems, and solving real problems.</text>
    <text x="56" y="736" fill="#9a9a9a">I learn best by building, experimenting, and understanding how things work.</text>
    <text x="56" y="849" fill="#ffffff">pradeep@github:~$ ./skills.sh</text>
    <text x="56" y="925"><tspan fill="#9a9a9a">&lt;/&gt;  Languages   :</tspan><tspan fill="#ffffff"> Java | JavaScript | Python</tspan></text>
    <text x="56" y="963" fill="#9a9a9a">[::] Backend     : Node.js | Express.js | FastAPI | REST APIs</text>
    <text x="56" y="1001"><tspan fill="#9a9a9a">[#]  Frontend    :</tspan><tspan fill="#ffffff"> HTML | CSS | React | Next.js | Tailwind CSS</tspan></text>
    <text x="56" y="1039"><tspan fill="#9a9a9a">[DB] Databases   :</tspan><tspan fill="#ffffff"> MongoDB | MySQL</tspan></text>
    <text x="56" y="1077"><tspan fill="#9a9a9a">[!]  Security     :</tspan><tspan fill="#ffffff"> API Security | OWASP API Top 10 | API Scanning</tspan></text>
    <text x="56" y="1115"><tspan fill="#9a9a9a">[*]  Tools       :</tspan><tspan fill="#ffffff"> Git | GitHub | Postman | Docker | Linux</tspan></text>
    <text x="56" y="1153"><tspan fill="#9a9a9a">[&gt;&gt;] Deployment  :</tspan><tspan fill="#ffffff"> Vercel | Render</tspan></text>
    <text x="56" y="1266" fill="#ffffff">pradeep@github:~$ ./stats.sh</text>
    <text x="56" y="1342"><tspan fill="#9a9a9a">LeetCode     :</tspan><tspan fill="#ffffff"> 300+ problems solved</tspan></text>
    <text x="56" y="1380"><tspan fill="#9a9a9a">GitHub       :</tspan><tspan fill="#ffffff"> 200+ commits and counting</tspan></text>
    <text x="56" y="1418"><tspan fill="#9a9a9a">Open Source  :</tspan><tspan fill="#ffffff"> Contributor</tspan></text>
    <text x="56" y="1531" fill="#ffffff">pradeep@github:~$ ./connect.sh</text>
    <text x="56" y="1607" fill="#9a9a9a">AVAILABLE CONNECTIONS</text>
    <text x="56" y="1645"><tspan fill="#9a9a9a">LinkedIn  :</tspan><tspan fill="#ffffff"> linkedin.com/in/pradeep-naru-78967a320</tspan></text>
    <text x="56" y="1683"><tspan fill="#9a9a9a">GitHub    :</tspan><tspan fill="#ffffff"> github.com/pradeep-git-dev</tspan></text>
    <text x="56" y="1721"><tspan fill="#9a9a9a">Email     :</tspan><tspan fill="#ffffff"> narupradeep001@gmail.com</tspan></text>
    <text x="56" y="1872"><tspan fill="#ffffff">pradeep@github:~$ </tspan><tspan fill="#ffffff">█<animate attributeName="opacity" values="1;1;0;0;1" dur="1.1s" repeatCount="indefinite"/></tspan></text>
  </g>
</svg>
