<svg xmlns="http://www.w3.org/2000/svg" role="img" viewBox="0 0 1100 1761">
  <style>
    .terminal-text {
      font-family: Consolas, Menlo, Monaco, 'Courier New', monospace;
      font-size: 20px;
      font-weight: normal;
    }
    .bold {
      font-weight: bold;
    }
  </style>
  <rect width="1100" height="1761" fill="#000000"/>
  <g class="terminal-text" xml:space="preserve">
    <text x="56" y="50"><tspan fill="#ffffff" class="bold">pradeep@github:~$ </tspan><tspan fill="#ffffff" class="bold">./about_me.sh --------------------------------------------</tspan></text>
    <g transform="translate(56, 110)">
      <rect x="57.3" y="81.0" width="6.7" height="3.4" fill="#ffffff" />
<rect x="70.7" y="81.0" width="6.7" height="3.4" fill="#ffffff" />
<rect x="80.8" y="81.0" width="10.1" height="3.4" fill="#ffffff" />
<rect x="97.7" y="81.0" width="13.5" height="3.4" fill="#ffffff" />
<rect x="114.5" y="81.0" width="6.7" height="3.4" fill="#ffffff" />
<rect x="124.6" y="81.0" width="6.7" height="3.4" fill="#ffffff" />
<rect x="141.5" y="81.0" width="13.5" height="3.4" fill="#ffffff" />
<rect x="161.7" y="81.0" width="13.5" height="3.4" fill="#ffffff" />
<rect x="181.9" y="81.0" width="10.1" height="3.4" fill="#ffffff" />
<rect x="198.7" y="81.0" width="13.5" height="3.4" fill="#ffffff" />
<rect x="218.9" y="81.0" width="43.8" height="3.4" fill="#ffffff" />
<rect x="57.3" y="84.4" width="10.1" height="3.4" fill="#ffffff" />
<rect x="70.7" y="84.4" width="6.7" height="3.4" fill="#ffffff" />
<rect x="80.8" y="84.4" width="13.5" height="3.4" fill="#ffffff" />
<rect x="97.7" y="84.4" width="23.6" height="3.4" fill="#ffffff" />
<rect x="124.6" y="84.4" width="6.7" height="3.4" fill="#ffffff" />
<rect x="141.5" y="84.4" width="6.7" height="3.4" fill="#ffffff" />
<rect x="151.6" y="84.4" width="6.7" height="3.4" fill="#ffffff" />
<rect x="161.7" y="84.4" width="3.4" height="3.4" fill="#ffffff" />
<rect x="168.4" y="84.4" width="6.7" height="3.4" fill="#ffffff" />
<rect x="178.5" y="84.4" width="6.7" height="3.4" fill="#ffffff" />
<rect x="188.6" y="84.4" width="6.7" height="3.4" fill="#ffffff" />
<rect x="198.7" y="84.4" width="16.8" height="3.4" fill="#ffffff" />
<rect x="218.9" y="84.4" width="47.2" height="3.4" fill="#ffffff" />
<rect x="57.3" y="87.8" width="10.1" height="3.4" fill="#ffffff" />
<rect x="70.7" y="87.8" width="6.7" height="3.4" fill="#ffffff" />
<rect x="80.8" y="87.8" width="13.5" height="3.4" fill="#ffffff" />
<rect x="97.7" y="87.8" width="6.7" height="3.4" fill="#ffffff" />
<rect x="107.8" y="87.8" width="13.5" height="3.4" fill="#ffffff" />
<rect x="124.6" y="87.8" width="6.7" height="3.4" fill="#ffffff" />
<rect x="141.5" y="87.8" width="6.7" height="3.4" fill="#ffffff" />
<rect x="151.6" y="87.8" width="6.7" height="3.4" fill="#ffffff" />
<rect x="161.7" y="87.8" width="3.4" height="3.4" fill="#ffffff" />
<rect x="171.8" y="87.8" width="3.4" height="3.4" fill="#ffffff" />
<rect x="178.5" y="87.8" width="6.7" height="3.4" fill="#ffffff" />
<rect x="188.6" y="87.8" width="6.7" height="3.4" fill="#ffffff" />
<rect x="198.7" y="87.8" width="6.7" height="3.4" fill="#ffffff" />
<rect x="208.8" y="87.8" width="6.7" height="3.4" fill="#ffffff" />
<rect x="218.9" y="87.8" width="6.7" height="3.4" fill="#ffffff" />
<rect x="232.4" y="87.8" width="6.7" height="3.4" fill="#ffffff" />
<rect x="249.3" y="87.8" width="6.7" height="3.4" fill="#ffffff" />
<rect x="259.4" y="87.8" width="6.7" height="3.4" fill="#ffffff" />
<rect x="57.3" y="91.1" width="10.1" height="3.4" fill="#ffffff" />
<rect x="70.7" y="91.1" width="6.7" height="3.4" fill="#ffffff" />
<rect x="80.8" y="91.1" width="13.5" height="3.4" fill="#ffffff" />
<rect x="97.7" y="91.1" width="23.6" height="3.4" fill="#ffffff" />
<rect x="124.6" y="91.1" width="6.7" height="3.4" fill="#ffffff" />
<rect x="141.5" y="91.1" width="6.7" height="3.4" fill="#ffffff" />
<rect x="151.6" y="91.1" width="6.7" height="3.4" fill="#ffffff" />
<rect x="161.7" y="91.1" width="13.5" height="3.4" fill="#ffffff" />
<rect x="178.5" y="91.1" width="6.7" height="3.4" fill="#ffffff" />
<rect x="188.6" y="91.1" width="6.7" height="3.4" fill="#ffffff" />
<rect x="198.7" y="91.1" width="6.7" height="3.4" fill="#ffffff" />
<rect x="208.8" y="91.1" width="6.7" height="3.4" fill="#ffffff" />
<rect x="218.9" y="91.1" width="26.9" height="3.4" fill="#ffffff" />
<rect x="249.3" y="91.1" width="6.7" height="3.4" fill="#ffffff" />
<rect x="259.4" y="91.1" width="6.7" height="3.4" fill="#ffffff" />
<rect x="57.3" y="94.5" width="20.2" height="3.4" fill="#ffffff" />
<rect x="80.8" y="94.5" width="13.5" height="3.4" fill="#ffffff" />
<rect x="97.7" y="94.5" width="13.5" height="3.4" fill="#ffffff" />
<rect x="114.5" y="94.5" width="6.7" height="3.4" fill="#ffffff" />
<rect x="124.6" y="94.5" width="6.7" height="3.4" fill="#ffffff" />
<rect x="141.5" y="94.5" width="16.8" height="3.4" fill="#ffffff" />
<rect x="161.7" y="94.5" width="10.1" height="3.4" fill="#ffffff" />
<rect x="178.5" y="94.5" width="16.8" height="3.4" fill="#ffffff" />
<rect x="198.7" y="94.5" width="6.7" height="3.4" fill="#ffffff" />
<rect x="208.8" y="94.5" width="6.7" height="3.4" fill="#ffffff" />
<rect x="218.9" y="94.5" width="26.9" height="3.4" fill="#ffffff" />
<rect x="249.3" y="94.5" width="16.8" height="3.4" fill="#ffffff" />
<rect x="57.3" y="97.9" width="6.7" height="3.4" fill="#ffffff" />
<rect x="67.4" y="97.9" width="10.1" height="3.4" fill="#ffffff" />
<rect x="80.8" y="97.9" width="13.5" height="3.4" fill="#ffffff" />
<rect x="97.7" y="97.9" width="6.7" height="3.4" fill="#ffffff" />
<rect x="107.8" y="97.9" width="13.5" height="3.4" fill="#ffffff" />
<rect x="124.6" y="97.9" width="6.7" height="3.4" fill="#ffffff" />
<rect x="141.5" y="97.9" width="6.7" height="3.4" fill="#ffffff" />
<rect x="161.7" y="97.9" width="3.4" height="3.4" fill="#ffffff" />
<rect x="171.8" y="97.9" width="3.4" height="3.4" fill="#ffffff" />
<rect x="178.5" y="97.9" width="16.8" height="3.4" fill="#ffffff" />
<rect x="198.7" y="97.9" width="6.7" height="3.4" fill="#ffffff" />
<rect x="208.8" y="97.9" width="6.7" height="3.4" fill="#ffffff" />
<rect x="218.9" y="97.9" width="6.7" height="3.4" fill="#ffffff" />
<rect x="232.4" y="97.9" width="6.7" height="3.4" fill="#ffffff" />
<rect x="249.3" y="97.9" width="13.5" height="3.4" fill="#ffffff" />
<rect x="57.3" y="101.2" width="6.7" height="3.4" fill="#ffffff" />
<rect x="67.4" y="101.2" width="10.1" height="3.4" fill="#ffffff" />
<rect x="80.8" y="101.2" width="13.5" height="3.4" fill="#ffffff" />
<rect x="97.7" y="101.2" width="6.7" height="3.4" fill="#ffffff" />
<rect x="107.8" y="101.2" width="23.6" height="3.4" fill="#ffffff" />
<rect x="141.5" y="101.2" width="6.7" height="3.4" fill="#ffffff" />
<rect x="161.7" y="101.2" width="3.4" height="3.4" fill="#ffffff" />
<rect x="171.8" y="101.2" width="3.4" height="3.4" fill="#ffffff" />
<rect x="178.5" y="101.2" width="6.7" height="3.4" fill="#ffffff" />
<rect x="188.6" y="101.2" width="6.7" height="3.4" fill="#ffffff" />
<rect x="198.7" y="101.2" width="16.8" height="3.4" fill="#ffffff" />
<rect x="218.9" y="101.2" width="37.1" height="3.4" fill="#ffffff" />
<rect x="57.3" y="104.6" width="6.7" height="3.4" fill="#ffffff" />
<rect x="67.4" y="104.6" width="10.1" height="3.4" fill="#ffffff" />
<rect x="80.8" y="104.6" width="13.5" height="3.4" fill="#ffffff" />
<rect x="97.7" y="104.6" width="6.7" height="3.4" fill="#ffffff" />
<rect x="107.8" y="104.6" width="6.7" height="3.4" fill="#ffffff" />
<rect x="117.9" y="104.6" width="10.1" height="3.4" fill="#ffffff" />
<rect x="141.5" y="104.6" width="6.7" height="3.4" fill="#ffffff" />
<rect x="161.7" y="104.6" width="3.4" height="3.4" fill="#ffffff" />
<rect x="171.8" y="104.6" width="3.4" height="3.4" fill="#ffffff" />
<rect x="178.5" y="104.6" width="6.7" height="3.4" fill="#ffffff" />
<rect x="188.6" y="104.6" width="6.7" height="3.4" fill="#ffffff" />
<rect x="198.7" y="104.6" width="13.5" height="3.4" fill="#ffffff" />
<rect x="218.9" y="104.6" width="37.1" height="3.4" fill="#ffffff" />
<rect x="57.3" y="108.0" width="6.7" height="3.4" fill="#ffffff" />
    </g>
    <text x="56" y="356" fill="#ffffff">Backend Developer | CSE Student | Builder</text>
    <text x="56" y="401" fill="#9a9a9a">&gt; Location    : Visakhapatnam, Andhra Pradesh, India</text>
    <text x="56" y="431" fill="#9a9a9a">&gt; Education   : B.Tech CSE @ ANITS</text>
    <text x="56" y="461" fill="#9a9a9a">&gt; Focus       : Backend Engineering | API Security | Developer Tools</text>
    <text x="56" y="491" fill="#9a9a9a">&gt; Interests   : System Design | Open Source | Applied AI</text>
    <text x="56" y="551" fill="#9a9a9a">Backend-focused CSE student building security and developer tools.</text>
    <text x="56" y="581" fill="#9a9a9a">I enjoy designing APIs, understanding systems, and solving real problems.</text>
    <text x="56" y="611" fill="#9a9a9a">I learn best by building, experimenting, and understanding how things work.</text>
    <text x="56" y="671" fill="#555555">----------------------------------------------------------------------------</text>
    <text x="56" y="751"><tspan fill="#ffffff" class="bold">pradeep@github:~$ </tspan><tspan fill="#ffffff" class="bold">./skills.sh ----------------------------------------------</tspan></text>
    <text x="56" y="811"><tspan fill="#9a9a9a">&lt;/&gt;  Languages   </tspan><tspan fill="#ffffff">--&gt;  Java | JavaScript | Python</tspan></text>
    <text x="56" y="841"><tspan fill="#9a9a9a">[::] Backend     </tspan><tspan fill="#ffffff">--&gt;  Node.js | Express.js | FastAPI | REST APIs</tspan></text>
    <text x="56" y="871"><tspan fill="#9a9a9a">[#]  Frontend    </tspan><tspan fill="#ffffff">--&gt;  HTML | CSS | React | Next.js | Tailwind CSS</tspan></text>
    <text x="56" y="901"><tspan fill="#9a9a9a">[DB] Databases   </tspan><tspan fill="#ffffff">--&gt;  MongoDB | MySQL</tspan></text>
    <text x="56" y="931"><tspan fill="#9a9a9a">[!]  Security    </tspan><tspan fill="#ffffff">--&gt;  API Security | OWASP API Top 10 | API Scanning</tspan></text>
    <text x="56" y="961"><tspan fill="#9a9a9a">[*]  Tools       </tspan><tspan fill="#ffffff">--&gt;  Git | GitHub | Postman | Docker | Linux</tspan></text>
    <text x="56" y="991"><tspan fill="#9a9a9a">[&gt;&gt;] Deployment  </tspan><tspan fill="#ffffff">--&gt;  Vercel | Render</tspan></text>
    <text x="56" y="1051" fill="#555555">----------------------------------------------------------------------------</text>
    <text x="56" y="1131"><tspan fill="#ffffff" class="bold">pradeep@github:~$ </tspan><tspan fill="#ffffff" class="bold">./stats.sh -----------------------------------------------</tspan></text>
    <text x="56" y="1191"><tspan fill="#9a9a9a">LeetCode     </tspan><tspan fill="#ffffff">--&gt;  300+ problems solved</tspan></text>
    <text x="56" y="1221"><tspan fill="#9a9a9a">GitHub       </tspan><tspan fill="#ffffff">--&gt;  200+ commits and counting</tspan></text>
    <text x="56" y="1251"><tspan fill="#9a9a9a">Open Source  </tspan><tspan fill="#ffffff">--&gt;  Contributor</tspan></text>
    <text x="56" y="1311" fill="#555555">----------------------------------------------------------------------------</text>
    <text x="56" y="1391"><tspan fill="#ffffff" class="bold">pradeep@github:~$ </tspan><tspan fill="#ffffff" class="bold">./connect.sh ---------------------------------------------</tspan></text>
    <text x="56" y="1451" fill="#9a9a9a">AVAILABLE CONNECTIONS</text>
    <text x="56" y="1481" fill="#9a9a9a">---------------------</text>
    <text x="56" y="1511"><tspan fill="#9a9a9a">LinkedIn  </tspan><tspan fill="#ffffff">--&gt;  linkedin.com/in/pradeep-naru-78967a320</tspan></text>
    <text x="56" y="1541"><tspan fill="#9a9a9a">GitHub    </tspan><tspan fill="#ffffff">--&gt;  github.com/pradeep-git-dev</tspan></text>
    <text x="56" y="1571"><tspan fill="#9a9a9a">Email     </tspan><tspan fill="#ffffff">--&gt;  narupradeep001@gmail.com</tspan></text>
    <text x="56" y="1631" fill="#555555">----------------------------------------------------------------------------</text>
    <text x="56" y="1711"><tspan fill="#ffffff" class="bold">pradeep@github:~$ </tspan><tspan fill="#ffffff">█<animate attributeName="opacity" values="1;1;0;0;1" dur="1.1s" repeatCount="indefinite"/></tspan></text>
  </g>
</svg>
